<mxfile host="app.diagrams.net" agent="Mozilla/5.0 (Windows NT 10.0; Win64; x64) AppleWebKit/537.36 (KHTML, like Gecko) Chrome/131.0.0.0 Safari/537.36" version="25.0.3">
  <diagram name="第 1 页" id="HsRobyK3Fas88-mNI9Ux">
    <mxGraphModel dx="1221" dy="1894" grid="1" gridSize="10" guides="1" tooltips="1" connect="1" arrows="1" fold="1" page="1" pageScale="1" pageWidth="827" pageHeight="1169" math="0" shadow="0">
      <root>
        <mxCell id="0" />
        <mxCell id="1" parent="0" />
        <mxCell id="VkIDEUSJJLNDlYU5rUfV-1" value="" style="points=[[0.145,0.145,0],[0.5,0,0],[0.855,0.145,0],[1,0.5,0],[0.855,0.855,0],[0.5,1,0],[0.145,0.855,0],[0,0.5,0]];shape=mxgraph.bpmn.event;html=1;verticalLabelPosition=bottom;labelBackgroundColor=#ffffff;verticalAlign=top;align=center;perimeter=ellipsePerimeter;outlineConnect=0;aspect=fixed;outline=standard;symbol=general;" parent="1" vertex="1">
          <mxGeometry x="20" y="40" width="50" height="50" as="geometry" />
        </mxCell>
        <mxCell id="VkIDEUSJJLNDlYU5rUfV-2" value="" style="points=[[0.145,0.145,0],[0.5,0,0],[0.855,0.145,0],[1,0.5,0],[0.855,0.855,0],[0.5,1,0],[0.145,0.855,0],[0,0.5,0]];shape=mxgraph.bpmn.event;html=1;verticalLabelPosition=bottom;labelBackgroundColor=#ffffff;verticalAlign=top;align=center;perimeter=ellipsePerimeter;outlineConnect=0;aspect=fixed;outline=standard;symbol=general;strokeWidth=3;" parent="1" vertex="1">
          <mxGeometry x="1120" y="70" width="50" height="50" as="geometry" />
        </mxCell>
        <mxCell id="VkIDEUSJJLNDlYU5rUfV-4" value="" style="points=[[0.25,0,0],[0.5,0,0],[0.75,0,0],[1,0.25,0],[1,0.5,0],[1,0.75,0],[0.75,1,0],[0.5,1,0],[0.25,1,0],[0,0.75,0],[0,0.5,0],[0,0.25,0]];shape=mxgraph.bpmn.task;whiteSpace=wrap;rectStyle=rounded;size=10;html=1;container=1;expand=0;collapsible=0;taskMarker=abstract;" parent="1" vertex="1">
          <mxGeometry x="130" y="28.75" width="150" height="72.5" as="geometry" />
        </mxCell>
        <mxCell id="VkIDEUSJJLNDlYU5rUfV-5" value="Synchronise information with the Delivery System" style="text;html=1;align=center;verticalAlign=middle;whiteSpace=wrap;rounded=0;" parent="VkIDEUSJJLNDlYU5rUfV-4" vertex="1">
          <mxGeometry x="20" y="16.48" width="120" height="39.55" as="geometry" />
        </mxCell>
        <mxCell id="VkIDEUSJJLNDlYU5rUfV-6" style="edgeStyle=orthogonalEdgeStyle;rounded=0;orthogonalLoop=1;jettySize=auto;html=1;entryX=0;entryY=0.5;entryDx=0;entryDy=0;entryPerimeter=0;" parent="1" source="VkIDEUSJJLNDlYU5rUfV-1" target="VkIDEUSJJLNDlYU5rUfV-4" edge="1">
          <mxGeometry relative="1" as="geometry" />
        </mxCell>
        <mxCell id="VkIDEUSJJLNDlYU5rUfV-9" value="" style="points=[[0.25,0,0],[0.5,0,0],[0.75,0,0],[1,0.25,0],[1,0.5,0],[1,0.75,0],[0.75,1,0],[0.5,1,0],[0.25,1,0],[0,0.75,0],[0,0.5,0],[0,0.25,0]];shape=mxgraph.bpmn.task;whiteSpace=wrap;rectStyle=rounded;size=10;html=1;container=1;expand=0;collapsible=0;taskMarker=abstract;" parent="1" vertex="1">
          <mxGeometry x="350" y="37.5" width="120" height="55" as="geometry" />
        </mxCell>
        <mxCell id="VkIDEUSJJLNDlYU5rUfV-10" value="Record flight details" style="text;html=1;align=center;verticalAlign=middle;whiteSpace=wrap;rounded=0;" parent="VkIDEUSJJLNDlYU5rUfV-9" vertex="1">
          <mxGeometry x="15" y="12.5" width="80" height="30" as="geometry" />
        </mxCell>
        <mxCell id="VkIDEUSJJLNDlYU5rUfV-11" style="edgeStyle=orthogonalEdgeStyle;rounded=0;orthogonalLoop=1;jettySize=auto;html=1;entryX=0;entryY=0.5;entryDx=0;entryDy=0;entryPerimeter=0;" parent="1" source="VkIDEUSJJLNDlYU5rUfV-9" edge="1">
          <mxGeometry relative="1" as="geometry">
            <mxPoint x="540" y="65" as="targetPoint" />
          </mxGeometry>
        </mxCell>
        <mxCell id="VkIDEUSJJLNDlYU5rUfV-19" value="" style="points=[[0.25,0,0],[0.5,0,0],[0.75,0,0],[1,0.25,0],[1,0.5,0],[1,0.75,0],[0.75,1,0],[0.5,1,0],[0.25,1,0],[0,0.75,0],[0,0.5,0],[0,0.25,0]];shape=mxgraph.bpmn.task;whiteSpace=wrap;rectStyle=rounded;size=10;html=1;container=1;expand=0;collapsible=0;taskMarker=abstract;" parent="1" vertex="1">
          <mxGeometry x="680" y="-69.5" width="150" height="55" as="geometry" />
        </mxCell>
        <mxCell id="VkIDEUSJJLNDlYU5rUfV-20" value="&lt;div&gt;&lt;span style=&quot;background-color: initial;&quot;&gt;Arrange f&lt;/span&gt;&lt;span style=&quot;font-size: 11.04pt; font-family: Calibri;&quot;&gt;ood trollies&lt;/span&gt;&lt;/div&gt;" style="text;html=1;align=center;verticalAlign=middle;whiteSpace=wrap;rounded=0;" parent="VkIDEUSJJLNDlYU5rUfV-19" vertex="1">
          <mxGeometry x="18.75" y="12.5" width="121.25" height="30" as="geometry" />
        </mxCell>
        <mxCell id="VkIDEUSJJLNDlYU5rUfV-24" style="edgeStyle=orthogonalEdgeStyle;rounded=0;orthogonalLoop=1;jettySize=auto;html=1;entryX=0;entryY=0.5;entryDx=0;entryDy=0;entryPerimeter=0;" parent="1" source="VkIDEUSJJLNDlYU5rUfV-4" target="VkIDEUSJJLNDlYU5rUfV-9" edge="1">
          <mxGeometry relative="1" as="geometry" />
        </mxCell>
        <mxCell id="VkIDEUSJJLNDlYU5rUfV-29" value="" style="edgeStyle=orthogonalEdgeStyle;rounded=0;orthogonalLoop=1;jettySize=auto;html=1;" parent="1" source="VkIDEUSJJLNDlYU5rUfV-25" target="VkIDEUSJJLNDlYU5rUfV-2" edge="1">
          <mxGeometry relative="1" as="geometry" />
        </mxCell>
        <mxCell id="VkIDEUSJJLNDlYU5rUfV-25" value="" style="points=[[0.25,0,0],[0.5,0,0],[0.75,0,0],[1,0.25,0],[1,0.5,0],[1,0.75,0],[0.75,1,0],[0.5,1,0],[0.25,1,0],[0,0.75,0],[0,0.5,0],[0,0.25,0]];shape=mxgraph.bpmn.task;whiteSpace=wrap;rectStyle=rounded;size=10;html=1;container=1;expand=0;collapsible=0;taskMarker=abstract;" parent="1" vertex="1">
          <mxGeometry x="910" y="-70" width="150" height="55" as="geometry" />
        </mxCell>
        <mxCell id="VkIDEUSJJLNDlYU5rUfV-26" value="Handle&amp;nbsp;&lt;span style=&quot;font-family: Calibri; font-size: 11.04pt; background-color: initial;&quot;&gt;return of unused, out-of-date food&lt;/span&gt;" style="text;html=1;align=center;verticalAlign=middle;whiteSpace=wrap;rounded=0;" parent="VkIDEUSJJLNDlYU5rUfV-25" vertex="1">
          <mxGeometry x="18.75" y="12.5" width="121.25" height="30" as="geometry" />
        </mxCell>
        <mxCell id="VkIDEUSJJLNDlYU5rUfV-28" style="edgeStyle=orthogonalEdgeStyle;rounded=0;orthogonalLoop=1;jettySize=auto;html=1;entryX=0;entryY=0.5;entryDx=0;entryDy=0;entryPerimeter=0;" parent="1" source="VkIDEUSJJLNDlYU5rUfV-19" target="VkIDEUSJJLNDlYU5rUfV-25" edge="1">
          <mxGeometry relative="1" as="geometry" />
        </mxCell>
        <mxCell id="VkIDEUSJJLNDlYU5rUfV-32" style="edgeStyle=orthogonalEdgeStyle;rounded=0;orthogonalLoop=1;jettySize=auto;html=1;entryX=0;entryY=0.5;entryDx=0;entryDy=0;entryPerimeter=0;" parent="1" source="VkIDEUSJJLNDlYU5rUfV-30" target="VkIDEUSJJLNDlYU5rUfV-19" edge="1">
          <mxGeometry relative="1" as="geometry">
            <mxPoint x="580" y="-110" as="targetPoint" />
            <Array as="points">
              <mxPoint x="565" y="-42" />
            </Array>
          </mxGeometry>
        </mxCell>
        <mxCell id="VkIDEUSJJLNDlYU5rUfV-34" style="edgeStyle=orthogonalEdgeStyle;rounded=0;orthogonalLoop=1;jettySize=auto;html=1;exitX=0.5;exitY=1;exitDx=0;exitDy=0;exitPerimeter=0;" parent="1" source="VkIDEUSJJLNDlYU5rUfV-30" edge="1">
          <mxGeometry relative="1" as="geometry">
            <mxPoint x="807" y="200" as="targetPoint" />
            <mxPoint x="572" y="92" as="sourcePoint" />
            <Array as="points">
              <mxPoint x="565" y="200" />
            </Array>
          </mxGeometry>
        </mxCell>
        <mxCell id="VkIDEUSJJLNDlYU5rUfV-30" value="" style="points=[[0.25,0.25,0],[0.5,0,0],[0.75,0.25,0],[1,0.5,0],[0.75,0.75,0],[0.5,1,0],[0.25,0.75,0],[0,0.5,0]];shape=mxgraph.bpmn.gateway2;html=1;verticalLabelPosition=bottom;labelBackgroundColor=#ffffff;verticalAlign=top;align=center;perimeter=rhombusPerimeter;outlineConnect=0;outline=none;symbol=none;gwType=exclusive;" parent="1" vertex="1">
          <mxGeometry x="540" y="40" width="50" height="50" as="geometry" />
        </mxCell>
        <mxCell id="VkIDEUSJJLNDlYU5rUfV-33" value="&lt;span style=&quot;background-color: initial;&quot;&gt;D&lt;/span&gt;&lt;span style=&quot;background-color: initial; font-family: Calibri; font-size: 11.04pt;&quot;&gt;elay doea not happen&lt;/span&gt;" style="text;html=1;align=center;verticalAlign=middle;whiteSpace=wrap;rounded=0;" parent="1" vertex="1">
          <mxGeometry x="570" y="-80" width="90" height="30" as="geometry" />
        </mxCell>
        <mxCell id="VkIDEUSJJLNDlYU5rUfV-35" value="" style="points=[[0.25,0,0],[0.5,0,0],[0.75,0,0],[1,0.25,0],[1,0.5,0],[1,0.75,0],[0.75,1,0],[0.5,1,0],[0.25,1,0],[0,0.75,0],[0,0.5,0],[0,0.25,0]];shape=mxgraph.bpmn.task;whiteSpace=wrap;rectStyle=rounded;size=10;html=1;container=1;expand=0;collapsible=0;taskMarker=abstract;" parent="1" vertex="1">
          <mxGeometry x="810" y="170" width="150" height="55" as="geometry" />
        </mxCell>
        <mxCell id="VkIDEUSJJLNDlYU5rUfV-36" value="&lt;div&gt;&lt;span style=&quot;font-size: 11.04pt; font-family: Calibri;&quot;&gt;Incur the penalty&lt;/span&gt;&lt;/div&gt;" style="text;html=1;align=center;verticalAlign=middle;whiteSpace=wrap;rounded=0;" parent="VkIDEUSJJLNDlYU5rUfV-35" vertex="1">
          <mxGeometry x="18.75" y="12.5" width="121.25" height="30" as="geometry" />
        </mxCell>
        <mxCell id="VkIDEUSJJLNDlYU5rUfV-38" value="&lt;span style=&quot;background-color: initial;&quot;&gt;D&lt;/span&gt;&lt;span style=&quot;background-color: initial; font-family: Calibri; font-size: 11.04pt;&quot;&gt;elay happens&lt;/span&gt;" style="text;html=1;align=center;verticalAlign=middle;whiteSpace=wrap;rounded=0;" parent="1" vertex="1">
          <mxGeometry x="570" y="200" width="90" height="30" as="geometry" />
        </mxCell>
        <mxCell id="VkIDEUSJJLNDlYU5rUfV-39" style="edgeStyle=orthogonalEdgeStyle;rounded=0;orthogonalLoop=1;jettySize=auto;html=1;entryX=0.5;entryY=1;entryDx=0;entryDy=0;entryPerimeter=0;" parent="1" source="VkIDEUSJJLNDlYU5rUfV-35" target="VkIDEUSJJLNDlYU5rUfV-2" edge="1">
          <mxGeometry relative="1" as="geometry" />
        </mxCell>
      </root>
    </mxGraphModel>
  </diagram>
</mxfile>
